# xmcd
#
# Track frame offsets: 
#        150
#        17830
#        36157
#        51476
#        67841
#        84887
#        100736
#        115170
#        136815
#        153599
#        168357
#        188206
#        204207
#        225594
#
# Disc length: 3239 seconds
#
# Revision: 0
# Processed by: cddbd v1.5.2PL0 Copyright (c) Steve Scherf et al.
# Submitted via: ExactAudioCopy v1.3
#
DISCID=ab0ca50e
DTITLE=Charlie Landsborough - Still Can't Say Goodbye
DYEAR=1999
DGENRE=Country
TTITLE0=One True Love
TTITLE1=Why Worry
TTITLE2=Muddy Roads
TTITLE3=Blue Umbrella
TTITLE4=I Still Can't Say Goodbye
TTITLE5=I've Been Rained On Too
TTITLE6=Angels With Our Wing
TTITLE7=LIke I Used To Do
TTITLE8=Five Fingers
TTITLE9=It'll Be Her
TTITLE10=Time To Learn
TTITLE11=When I'm Dead and Gone
TTITLE12=Heaven Knows (Live)
TTITLE13=Part of Me (Live)
EXTD=
EXTT0=
EXTT1=
EXTT2=
EXTT3=
EXTT4=
EXTT5=
EXTT6=
EXTT7=
EXTT8=
EXTT9=
EXTT10=
EXTT11=
EXTT12=
EXTT13=
PLAYORDER=
